<svg id="Group_18559" data-name="Group 18559" xmlns="http://www.w3.org/2000/svg" width="12.133" height="18" viewBox="0 0 12.133 18">
  <path id="Path_60512" data-name="Path 60512" d="M95.316,14.584a.264.264,0,0,0-.264.264v2.479a.146.146,0,0,1-.146.146H93.489V12.28a.264.264,0,1,0-.527,0v5.193H90.108l.828-.911a.473.473,0,0,0,.114-.379v-.008l-.788-4.657.212-.32a.6.6,0,0,0,.378.164.462.462,0,0,0,.413-.256h0l.831-1.666,1.894.734a1.827,1.827,0,0,1,1.064,1.661v1.783a.264.264,0,1,0,.527,0V11.834a2.353,2.353,0,0,0-1.392-2.149l-.005,0L91.031,8.462V7.723A2.471,2.471,0,0,0,91.966,6.1a1.141,1.141,0,0,0,.67-.273,1.119,1.119,0,0,0,.117-1.58V3.268a3.268,3.268,0,1,0-6.536,0v1a1.059,1.059,0,0,0-.272.706,1.117,1.117,0,0,0,.389.848A1.141,1.141,0,0,0,87,6.1a2.445,2.445,0,0,0,.988,1.664v.7L84.844,9.683l0,0a2.353,2.353,0,0,0-1.392,2.149v5.493A.674.674,0,0,0,84.12,18h2.512a.264.264,0,1,0,0-.527h-.567V12.28a.264.264,0,1,0-.527,0v5.193H84.12a.146.146,0,0,1-.146-.146V11.834a1.827,1.827,0,0,1,1.063-1.661L86.93,9.44l.832,1.666a.462.462,0,0,0,.413.256.6.6,0,0,0,.378-.164l.212.32-.788,4.657v.008a.473.473,0,0,0,.114.379l.828.911H87.863a.264.264,0,0,0,0,.527h7.044a.674.674,0,0,0,.673-.673V14.848A.264.264,0,0,0,95.316,14.584ZM91.6,9.249,90.826,10.8l-.932-.662.957-1.182Zm-1.559,1.644-.2.3h-.658l-.2-.3.53-.376ZM88.52,8.547V8.054a2.675,2.675,0,0,0,1,.189,2.475,2.475,0,0,0,.986-.206v.512l-.991,1.223ZM92.5,4.976a.591.591,0,0,1-.205.448.614.614,0,0,1-.3.14V4.388A.6.6,0,0,1,92.5,4.976Zm-5.515.589a.6.6,0,0,1-.51-.589.626.626,0,0,1,.51-.575ZM87,3.864a1.3,1.3,0,0,0-.252.057V3.268a2.74,2.74,0,1,1,5.481,0V3.9a1.172,1.172,0,0,0-.238-.046c0-.254,0-.205-.83-1.1a.469.469,0,0,0-.6-.073,5.084,5.084,0,0,1-3.073.827A.469.469,0,0,0,87,3.864Zm.513,1.909V4.04a5.635,5.635,0,0,0,3.3-.889c.382.41.588.625.655.707V5.772a1.976,1.976,0,0,1-3.951,0Zm.69,5.03-.775-1.554.749-.29.958,1.182Zm.3,5.43.763-4.509h.495l.763,4.509-1.011,1.112Z" transform="translate(-83.447)" fill="#a2b0b8"/>
</svg>
