<svg xmlns="http://www.w3.org/2000/svg" width="19" height="19" viewBox="0 0 19 19">
  <path id="Icon_material-language" data-name="Icon material-language" d="M12.491,3A9.5,9.5,0,1,0,22,12.5,9.5,9.5,0,0,0,12.491,3Zm6.583,5.7h-2.8a14.867,14.867,0,0,0-1.311-3.382A7.628,7.628,0,0,1,19.074,8.7ZM12.5,4.938A13.382,13.382,0,0,1,14.314,8.7H10.686A13.382,13.382,0,0,1,12.5,4.938ZM5.147,14.4a7.431,7.431,0,0,1,0-3.8H8.358a15.689,15.689,0,0,0-.133,1.9,15.69,15.69,0,0,0,.133,1.9Zm.779,1.9h2.8a14.867,14.867,0,0,0,1.311,3.382A7.587,7.587,0,0,1,5.926,16.3Zm2.8-7.6h-2.8a7.587,7.587,0,0,1,4.113-3.382A14.867,14.867,0,0,0,8.729,8.7ZM12.5,20.062A13.382,13.382,0,0,1,10.686,16.3h3.629A13.382,13.382,0,0,1,12.5,20.062ZM14.723,14.4H10.277a13.977,13.977,0,0,1-.152-1.9,13.856,13.856,0,0,1,.152-1.9h4.446a13.856,13.856,0,0,1,.152,1.9A13.977,13.977,0,0,1,14.723,14.4Zm.238,5.282A14.867,14.867,0,0,0,16.271,16.3h2.8A7.628,7.628,0,0,1,14.961,19.682ZM16.642,14.4a15.689,15.689,0,0,0,.133-1.9,15.689,15.689,0,0,0-.133-1.9h3.211a7.431,7.431,0,0,1,0,3.8Z" transform="translate(-3 -3)" fill="#838a92"/>
</svg>
