<svg xmlns="http://www.w3.org/2000/svg" width="240" height="20.329" viewBox="0 0 240 20.329">
  <g id="Group_18620" data-name="Group 18620" transform="translate(-227.114 -281.22)">
    <path id="Path_60660" data-name="Path 60660" d="M301.055,285.162H289.927v16.264H286.5V285.162H275.375v-3.424h25.68Z" transform="translate(-18.383 -0.197)" fill="#005e7b"/>
    <path id="Path_60661" data-name="Path 60661" d="M340.928,301.229h-4.315l-3.281-4.637h-17.9l-3.245,4.637h-4.316l12.876-18.011a4.574,4.574,0,0,1,3.638-2,4.523,4.523,0,0,1,3.638,2Zm-10.057-8.061-6.491-9.309-6.491,9.309Z" transform="translate(-30.759 0)" fill="#005e7b"/>
    <path id="Path_60662" data-name="Path 60662" d="M393.455,281.541l-6.135,17.477a3.853,3.853,0,0,1-7.24,0l-5.35-15.408-5.35,15.408a3.879,3.879,0,0,1-7.275,0l-6.135-17.477h3.638l6.134,17.619,5.35-15.408a3.8,3.8,0,0,1,3.638-2.532,3.867,3.867,0,0,1,3.638,2.532l5.35,15.408,6.1-17.619Z" transform="translate(-49.082 0)" fill="#005e7b"/>
    <path id="Path_60663" data-name="Path 60663" d="M446.515,301.426h-3.424v-5.992H423.974v5.992H420.55V281.738h20.616a5.343,5.343,0,0,1,5.35,5.35v3a4.024,4.024,0,0,1-2.176,3.638,4.024,4.024,0,0,1,2.176,3.638Zm-3.424-16.264H423.974v6.848h19.117Z" transform="translate(-73.68 -0.197)" fill="#005e7b"/>
    <path id="Path_60664" data-name="Path 60664" d="M494.907,301.426H474.293a5.343,5.343,0,0,1-5.35-5.35v-8.987a5.343,5.343,0,0,1,5.35-5.35h20.615v3.424H472.367v4.708h22.541v3.424H472.367V298h22.541Z" transform="translate(-92.113 -0.197)" fill="#005e7b"/>
    <path id="Path_60665" data-name="Path 60665" d="M543.3,301.426H522.683a5.343,5.343,0,0,1-5.35-5.35v-8.987a5.343,5.343,0,0,1,5.35-5.35H543.3v3.424H520.757v4.708H543.3v3.424H520.757V298H543.3Z" transform="translate(-110.545 -0.197)" fill="#005e7b"/>
    <path id="Path_60666" data-name="Path 60666" d="M591.691,296.076a5.343,5.343,0,0,1-5.35,5.35H565.726V281.738h20.615a5.343,5.343,0,0,1,5.35,5.35Zm-3.424-10.914H569.15V298h19.117Z" transform="translate(-128.978 -0.197)" fill="#005e7b"/>
    <path id="Path_60667" data-name="Path 60667" d="M612.665,309.714A1.714,1.714,0,1,1,610.95,308a1.715,1.715,0,0,1,1.715,1.715" transform="translate(-145.551 -10.2)" fill="#e50d50"/>
    <path id="Path_60668" data-name="Path 60668" d="M230.543,283.453a1.715,1.715,0,1,1-1.715-1.715,1.715,1.715,0,0,1,1.715,1.715" transform="translate(0 -0.197)" fill="#005e7b"/>
    <path id="Path_60669" data-name="Path 60669" d="M230.543,296.583a1.715,1.715,0,1,1-1.715-1.715,1.715,1.715,0,0,1,1.715,1.715" transform="translate(0 -5.199)" fill="#005e7b"/>
    <path id="Path_60670" data-name="Path 60670" d="M230.543,309.714A1.715,1.715,0,1,1,228.828,308a1.715,1.715,0,0,1,1.715,1.715" transform="translate(0 -10.2)" fill="#005e7b"/>
    <path id="Path_60671" data-name="Path 60671" d="M250.392,281.738H234.156v3.424h18.162v4.708H234.156v3.424h18.162V298H234.156v3.424h16.236a5.343,5.343,0,0,0,5.35-5.35v-8.987a5.343,5.343,0,0,0-5.35-5.35" transform="translate(-2.682 -0.197)" fill="#005e7b"/>
  </g>
</svg>
