<svg xmlns="http://www.w3.org/2000/svg" width="16.001" height="16" viewBox="0 0 16.001 16">
  <g id="user_1_" data-name="user (1)" transform="translate(0 -0.011)">
    <g id="Group_18539" data-name="Group 18539" transform="translate(0 0.011)">
      <path id="Path_60490" data-name="Path 60490" d="M13.781,2.473A8,8,0,1,0,2.462,13.767s.006.011.011.015c.046.045.1.082.143.125.129.114.257.233.392.343.073.057.148.114.222.167.128.1.256.191.39.279.091.057.185.114.278.171.123.074.246.149.374.217.108.057.218.106.328.158s.238.114.361.166.246.091.371.136.232.086.351.122c.135.041.273.072.41.106.114.028.225.06.343.083.158.031.318.051.478.073.1.014.2.033.3.043.262.026.526.04.792.04s.53-.014.792-.04c.1-.01.2-.029.3-.043.16-.022.32-.042.478-.073.114-.023.229-.057.343-.083.137-.034.275-.065.41-.106.119-.037.235-.081.351-.122s.249-.086.371-.136.241-.109.361-.166.22-.1.328-.158c.127-.068.25-.143.374-.217.093-.057.187-.109.278-.171.134-.088.262-.183.39-.279.074-.057.15-.109.222-.167.135-.109.264-.224.392-.343.047-.043.1-.081.143-.125,0,0,.006-.011.011-.015A7.988,7.988,0,0,0,13.781,2.473ZM12.5,13.169c-.1.091-.211.178-.32.262-.064.049-.128.1-.194.145-.1.075-.209.146-.315.214-.078.05-.157.1-.237.145l-.306.171c-.091.047-.185.091-.278.134s-.2.09-.3.13-.209.079-.314.114-.193.067-.291.1c-.114.034-.234.062-.352.091-.093.022-.184.046-.278.065-.135.026-.274.045-.412.063-.079.01-.157.025-.237.033-.219.021-.442.034-.666.034s-.447-.013-.666-.034c-.079-.008-.158-.022-.237-.033-.139-.019-.277-.037-.412-.063-.094-.018-.185-.043-.278-.065-.118-.029-.236-.057-.352-.091-.1-.029-.194-.063-.291-.1s-.211-.074-.314-.114-.2-.085-.3-.13-.187-.087-.278-.134-.206-.11-.306-.171c-.08-.047-.159-.095-.237-.145-.107-.068-.212-.139-.315-.214-.066-.047-.13-.1-.194-.145-.109-.084-.216-.171-.32-.262-.025-.019-.048-.043-.073-.065A4.583,4.583,0,0,1,6.543,8.822a3.387,3.387,0,0,0,2.91,0A4.583,4.583,0,0,1,12.568,13.1C12.544,13.126,12.521,13.147,12.5,13.169ZM6.006,4.591A2.285,2.285,0,1,1,9.118,7.7a.012.012,0,0,0-.01,0,2.42,2.42,0,0,1-.478.2c-.03.009-.057.02-.089.027-.057.015-.117.025-.176.035A2.314,2.314,0,0,1,8.03,8H7.965a2.314,2.314,0,0,1-.335-.034c-.057-.01-.118-.021-.176-.035-.03-.007-.057-.019-.089-.027a2.418,2.418,0,0,1-.478-.2l-.01,0A2.285,2.285,0,0,1,6.006,4.591Zm7.576,7.38h0a5.741,5.741,0,0,0-3.059-3.938,3.428,3.428,0,1,0-5.05,0,5.741,5.741,0,0,0-3.059,3.938,6.855,6.855,0,1,1,11.167,0Z" transform="translate(0 -0.011)" fill="#a2b0b8"/>
    </g>
  </g>
</svg>
